{
  "accessors": [
    {
      "bufferView": 2,
      "componentType": 5126,
      "count": 65532,
      "max": [
        7.6481704711914062,
        11.481311798095703,
        8.64801025390625
      ],
      "min": [
        -10.497451782226562,
        -6.6539649963378906,
        -0.68381881713867188
      ],
      "type": "VEC3"
    },
    {
      "bufferView": 2,
      "byteOffset": 786384,
      "componentType": 5126,
      "count": 65532,
      "max": [
        0.99997150897979736,
        0.99997889995574951,
        0.99999880790710449
      ],
      "min": [
        -0.99907732009887695,
        -0.99997687339782715,
        -1
      ],
      "type": "VEC3"
    },
    {
      "bufferView": 1,
      "componentType": 5126,
      "count": 65532,
      "max": [
        0.9997556209564209,
        0.99975574016571045
      ],
      "min": [
        0.000244140625,
        0.00024410022888332605
      ],
      "type": "VEC2"
    },
    {
      "bufferView": 0,
      "componentType": 5125,
      "count": 281895,
      "max": [
        65531
      ],
      "min": [
        0
      ],
      "type": "SCALAR"
    },
    {
      "bufferView": 2,
      "byteOffset": 1572768,
      "componentType": 5126,
      "count": 6463,
      "max": [
        -0.54403305053710938,
        9.3509635925292969,
        6.00103759765625
      ],
      "min": [
        -7.298736572265625,
        -1.8330535888671875,
        2.292999267578125
      ],
      "type": "VEC3"
    },
    {
      "bufferView": 2,
      "byteOffset": 1650324,
      "componentType": 5126,
      "count": 6463,
      "max": [
        0.99955129623413086,
        0.97333824634552002,
        0.99995601177215576
      ],
      "min": [
        -0.82997810840606689,
        -0.99022674560546875,
        -0.70596480369567871
      ],
      "type": "VEC3"
    },
    {
      "bufferView": 1,
      "byteOffset": 524256,
      "componentType": 5126,
      "count": 6463,
      "max": [
        0.9997556209564209,
        0.91710114479064941
      ],
      "min": [
        0.000244140625,
        0.00024415983352810144
      ],
      "type": "VEC2"
    },
    {
      "bufferView": 0,
      "byteOffset": 1127580,
      "componentType": 5125,
      "count": 18105,
      "max": [
        6462
      ],
      "min": [
        0
      ],
      "type": "SCALAR"
    }
  ],
  "asset": {
    "extras": {
      "author": "Alexandr Zhilkin (https://sketchfab.com/allexandr007)",
      "license": "CC-BY-4.0 (http://creativecommons.org/licenses/by/4.0/)",
      "source": "https://sketchfab.com/3d-models/sleeping-cat-f07e752e128643b18506789149d4c37d",
      "title": "Sleeping cat"
    },
    "generator": "Sketchfab-9.25.1",
    "version": "2.0"
  },
  "bufferViews": [
    {
      "buffer": 0,
      "byteLength": 1200000,
      "byteOffset": 0,
      "name": "floatBufferViews",
      "target": 34963
    },
    {
      "buffer": 0,
      "byteLength": 575960,
      "byteOffset": 1200000,
      "byteStride": 8,
      "name": "floatBufferViews",
      "target": 34962
    },
    {
      "buffer": 0,
      "byteLength": 1727880,
      "byteOffset": 1775960,
      "byteStride": 12,
      "name": "floatBufferViews",
      "target": 34962
    }
  ],
  "buffers": [
    {
      "byteLength": 3503840,
      "uri": "scene.bin"
    }
  ],
  "images": [
    {
      "uri": "textures/Material_u1_v1_baseColor.jpeg"
    }
  ],
  "materials": [
    {
      "doubleSided": false,
      "name": "Material_u1_v1",
      "pbrMetallicRoughness": {
        "baseColorFactor": [
          1,
          1,
          1,
          1
        ],
        "baseColorTexture": {
          "index": 0,
          "texCoord": 0
        },
        "metallicFactor": 0,
        "roughnessFactor": 0.98318207169492566
      }
    }
  ],
  "meshes": [
    {
      "name": "meshNode_Material_u1_v1_0",
      "primitives": [
        {
          "attributes": {
            "NORMAL": 1,
            "POSITION": 0,
            "TEXCOORD_0": 2
          },
          "indices": 3,
          "material": 0,
          "mode": 4
        }
      ]
    },
    {
      "name": "meshNode_Material_u1_v1_0",
      "primitives": [
        {
          "attributes": {
            "NORMAL": 5,
            "POSITION": 4,
            "TEXCOORD_0": 6
          },
          "indices": 7,
          "material": 0,
          "mode": 4
        }
      ]
    }
  ],
  "nodes": [
    {
      "children": [
        1
      ],
      "name": "RootNode (gltf orientation matrix)",
      "rotation": [
        -0.70710678118654746,
        -0,
        -0,
        0.70710678118654757
      ]
    },
    {
      "children": [
        2
      ],
      "matrix": [
        1,
        3.1450057482662597e-32,
        -1.6081226229577292e-16,
        0,
        -1.4104348231229717e-32,
        -1,
        -2.832769343193999e-16,
        0,
        -1.6081226229577292e-16,
        2.832769343193999e-16,
        -1,
        0,
        -6.6613381477509392e-16,
        -4.8273496627807617,
        -7.964200496673584,
        1
      ],
      "name": "RootNode (model correction matrix)"
    },
    {
      "children": [
        3
      ],
      "matrix": [
        1,
        0,
        0,
        0,
        0,
        -1,
        0,
        0,
        0,
        0,
        -1,
        0,
        0,
        0,
        0,
        1
      ],
      "name": "a82281ff0811455ba623fc4d8283af6f.fbx"
    },
    {
      "children": [
        4
      ],
      "name": "RootNode"
    },
    {
      "children": [
        5,
        6
      ],
      "name": "meshNode"
    },
    {
      "mesh": 0,
      "name": "meshNode_Material_u1_v1_0"
    },
    {
      "mesh": 1,
      "name": "meshNode_Material_u1_v1_0"
    }
  ],
  "samplers": [
    {
      "magFilter": 9729,
      "minFilter": 9987,
      "wrapS": 10497,
      "wrapT": 10497
    }
  ],
  "scene": 0,
  "scenes": [
    {
      "name": "OSG_Scene",
      "nodes": [
        0
      ]
    }
  ],
  "textures": [
    {
      "sampler": 0,
      "source": 0
    }
  ]
}

